<svg width="25" height="25" viewBox="0 0 25 25" fill="none" xmlns="http://www.w3.org/2000/svg">
    <path fill-rule="evenodd" clip-rule="evenodd" d="M21.5918 18.9822V19.9822C21.5918 21.0822 20.6918 21.9822 19.5918 21.9822H5.5918C4.4818 21.9822 3.5918 21.0822 3.5918 19.9822V5.98221C3.5918 4.88221 4.4818 3.98221 5.5918 3.98221H19.5918C20.6918 3.98221 21.5918 4.88221 21.5918 5.98221V6.98221H12.5918C11.4818 6.98221 10.5918 7.88221 10.5918 8.98221V16.9822C10.5918 18.0822 11.4818 18.9822 12.5918 18.9822H21.5918V18.9822ZM12.5919 16.9822H22.5919V8.98222H12.5919V16.9822V16.9822ZM16.5915 14.4822C15.7615 14.4822 15.0915 13.8122 15.0915 12.9822C15.0915 12.1522 15.7615 11.4822 16.5915 11.4822C17.4215 11.4822 18.0915 12.1522 18.0915 12.9822C18.0915 13.8122 17.4215 14.4822 16.5915 14.4822V14.4822Z"/>
</svg>