<svg width="19" height="19" viewBox="0 0 19 19" fill="none" xmlns="http://www.w3.org/2000/svg">
    <path fill-rule="evenodd" clip-rule="evenodd" d="M12.8099 11.1547H12.1948L11.9768 10.9565C12.7398 10.1201 13.1991 9.03411 13.1991 7.85277C13.1991 5.21859 10.9336 3.08337 8.13864 3.08337C5.34368 3.08337 3.07812 5.21859 3.07812 7.85277C3.07812 10.4869 5.34368 12.6222 8.13864 12.6222C9.39208 12.6222 10.5443 12.1892 11.4319 11.4702L11.6421 11.6756V12.2553L15.5348 15.9167L16.6948 14.8234L12.8099 11.1547ZM8.13864 11.1547C6.20007 11.1547 4.63521 9.67981 4.63521 7.85277C4.63521 6.02572 6.20007 4.55088 8.13864 4.55088C10.0772 4.55088 11.6421 6.02572 11.6421 7.85277C11.6421 9.67981 10.0772 11.1547 8.13864 11.1547Z"/>
</svg>    